<svg width="20" height="21" viewBox="0 0 20 21" fill="none" xmlns="http://www.w3.org/2000/svg">
<path fill-rule="evenodd" clip-rule="evenodd" d="M11.89 6.76837L10 8.66258L8.11 6.76837C7.92317 6.5807 7.66952 6.47524 7.405 6.47524C7.14048 6.47524 6.88683 6.5807 6.7 6.76837C6.31 7.15924 6.31 7.79065 6.7 8.18151L8.59 10.0757L6.7 11.9699C6.31 12.3608 6.31 12.9922 6.7 13.3831C7.09 13.7739 7.72 13.7739 8.11 13.3831L10 11.4889L11.89 13.3831C12.28 13.7739 12.91 13.7739 13.3 13.3831C13.69 12.9922 13.69 12.3608 13.3 11.9699L11.41 10.0757L13.3 8.18151C13.69 7.79065 13.69 7.15924 13.3 6.76837C12.91 6.38753 12.27 6.38753 11.89 6.76837ZM10 0.0534515C4.47 0.0534515 0 4.53341 0 10.0757C0 15.618 4.47 20.098 10 20.098C15.53 20.098 20 15.618 20 10.0757C20 4.53341 15.53 0.0534515 10 0.0534515ZM10 18.0935C5.59 18.0935 2 14.4955 2 10.0757C2 5.6559 5.59 2.05791 10 2.05791C14.41 2.05791 18 5.6559 18 10.0757C18 14.4955 14.41 18.0935 10 18.0935Z" fill="#C3CAD9"/>
</svg>
