<svg width="30" height="30" viewBox="0 0 30 30" fill="none" xmlns="http://www.w3.org/2000/svg">
<rect width="29.8447" height="30" rx="14.9223" fill="#1B447A"/>
<g clip-path="url(#clip0_1044_2717)">
<path fill-rule="evenodd" clip-rule="evenodd" d="M14.0642 22.8115H10.2595C9.40094 22.8115 8.70508 22.112 8.70508 21.249V16.91C8.70508 16.1548 9.24238 15.5079 9.98125 15.373C11.0766 15.1725 12.9652 14.8271 14.0336 14.6324C14.6217 14.5245 15.2238 14.5245 15.8118 14.6324C16.8802 14.8271 18.7688 15.1725 19.8642 15.373C20.6031 15.5079 21.1404 16.1548 21.1404 16.91C21.1404 18.0459 21.1404 20.0334 21.1404 21.249C21.1404 22.112 20.4445 22.8115 19.5859 22.8115H14.0642ZM18.9787 16.2699L18.9808 16.2725C19.0714 16.4089 19.0927 16.5803 19.0383 16.735L18.6725 17.7766C18.6248 17.9126 18.5227 18.023 18.3911 18.0808L17.703 18.3824L17.9766 18.9329C18.0533 19.0865 18.0492 19.2683 17.9662 19.4188L16.6668 21.7699H19.5859C19.872 21.7699 20.1041 21.5365 20.1041 21.249C20.1041 20.0334 20.1041 18.0459 20.1041 16.91C20.1041 16.6584 19.9248 16.4428 19.6787 16.3975L18.9787 16.2699ZM17.5616 16.0105L15.6263 15.6568C15.1611 15.5719 14.6844 15.5719 14.2191 15.6568L12.2838 16.0105L11.8704 16.6339L12.075 17.2162L13.0574 17.6464C13.1875 17.7037 13.2885 17.812 13.3372 17.9464C13.3859 18.0808 13.3771 18.2292 13.3134 18.3568L12.9175 19.1527L14.3642 21.7699H15.4813L16.9279 19.1527L16.5321 18.3568C16.4683 18.2292 16.4595 18.0808 16.5082 17.9464C16.5569 17.812 16.658 17.7037 16.788 17.6464L17.7704 17.2162L17.9751 16.6339L17.5616 16.0105ZM10.8667 16.2699L10.1667 16.3975C9.92063 16.4428 9.74135 16.6584 9.74135 16.91V21.249C9.74135 21.5365 9.97348 21.7699 10.2595 21.7699H13.1787L11.8792 19.4188C11.7963 19.2683 11.7921 19.0865 11.8688 18.9329L12.1424 18.3824L11.4543 18.0808C11.3227 18.023 11.2206 17.9126 11.173 17.7766L10.8072 16.735C10.7528 16.5803 10.774 16.4089 10.8647 16.2725L10.8667 16.2699ZM18.5497 19.1657V20.2074C18.5497 20.4949 18.7818 20.7282 19.0678 20.7282C19.3538 20.7282 19.5859 20.4949 19.5859 20.2074V19.1657C19.5859 18.8782 19.3538 18.6449 19.0678 18.6449C18.7818 18.6449 18.5497 18.8782 18.5497 19.1657ZM14.9227 7.18652C13.0642 7.18652 11.5548 8.70371 11.5548 10.5719C11.5548 12.4402 13.0642 13.9574 14.9227 13.9574C16.7813 13.9574 18.2906 12.4402 18.2906 10.5719C18.2906 8.70371 16.7813 7.18652 14.9227 7.18652ZM14.9227 8.22819C16.2098 8.22819 17.2543 9.27819 17.2543 10.5719C17.2543 11.8657 16.2098 12.9157 14.9227 12.9157C13.6357 12.9157 12.5911 11.8657 12.5911 10.5719C12.5911 9.27819 13.6357 8.22819 14.9227 8.22819Z" fill="white"/>
</g>
<defs>
<clipPath id="clip0_1044_2717">
<rect width="16.5804" height="16.6667" fill="white" transform="translate(6.63281 6.66602)"/>
</clipPath>
</defs>
</svg>
