<svg width="36" height="36" viewBox="0 0 36 36" fill="none" xmlns="http://www.w3.org/2000/svg">
<path fill-rule="evenodd" clip-rule="evenodd" d="M7.49219 0.931152C3.86782 0.931152 0.929688 3.86928 0.929688 7.49365V10.9973V28.5068C0.929688 32.1311 3.86782 35.0693 7.49219 35.0693H28.5053C32.1297 35.0693 35.0678 32.1311 35.0678 28.5068V10.9973V7.49365C35.0678 3.86928 32.1297 0.931152 28.5053 0.931152H7.49219ZM7.49219 3.55615C5.31757 3.55615 3.55469 5.31903 3.55469 7.49365V9.6848H32.4428V7.49365C32.4428 5.31903 30.6799 3.55615 28.5053 3.55615H7.49219ZM3.55469 28.5068C3.55469 30.6814 5.31756 32.4443 7.49219 32.4443H28.5053C30.6799 32.4443 32.4428 30.6814 32.4428 28.5068V12.3098H3.55469V28.5068Z" fill="#FF6551"/>
<path d="M21.0608 15.7248C20.2876 15.7248 19.6607 16.3516 19.6607 17.1248C19.6607 17.8981 20.2876 18.5249 21.0608 18.5249C21.834 18.5249 22.4608 17.8981 22.4608 17.1248C22.4608 16.3516 21.834 15.7248 21.0608 15.7248Z" fill="#FF6551"/>
<path d="M14.9332 15.7248C14.16 15.7248 13.5332 16.3516 13.5332 17.1248C13.5332 17.8981 14.16 18.5249 14.9332 18.5249C15.7064 18.5249 16.3333 17.8981 16.3333 17.1248C16.3333 16.3516 15.7064 15.7248 14.9332 15.7248Z" fill="#FF6551"/>
<path d="M14.9332 20.977C14.16 20.977 13.5332 21.6038 13.5332 22.377C13.5332 23.1503 14.16 23.7771 14.9332 23.7771C15.7064 23.7771 16.3333 23.1503 16.3333 22.377C16.3333 21.6038 15.7064 20.977 14.9332 20.977Z" fill="#FF6551"/>
<path d="M8.80567 20.977C8.03245 20.977 7.40563 21.6038 7.40563 22.377C7.40563 23.1503 8.03245 23.7771 8.80567 23.7771C9.57889 23.7771 10.2057 23.1503 10.2057 22.377C10.2057 21.6038 9.57889 20.977 8.80567 20.977Z" fill="#FF6551"/>
<path d="M8.80567 26.2292C8.03245 26.2292 7.40563 26.856 7.40563 27.6292C7.40563 28.4024 8.03245 29.0293 8.80567 29.0293C9.57889 29.0293 10.2057 28.4024 10.2057 27.6292C10.2057 26.856 9.57889 26.2292 8.80567 26.2292Z" fill="#FF6551"/>
<path d="M14.9332 26.2292C14.16 26.2292 13.5332 26.856 13.5332 27.6292C13.5332 28.4024 14.16 29.0293 14.9332 29.0293C15.7064 29.0293 16.3333 28.4024 16.3333 27.6292C16.3333 26.856 15.7064 26.2292 14.9332 26.2292Z" fill="#FF6551"/>
<path d="M21.0608 26.2292C20.2876 26.2292 19.6607 26.856 19.6607 27.6292C19.6607 28.4024 20.2876 29.0293 21.0608 29.0293C21.834 29.0293 22.4608 28.4024 22.4608 27.6292C22.4608 26.856 21.834 26.2292 21.0608 26.2292Z" fill="#FF6551"/>
<path d="M27.1901 26.2292C26.4169 26.2292 25.79 26.856 25.79 27.6292C25.79 28.4024 26.4169 29.0293 27.1901 29.0293C27.9633 29.0293 28.5901 28.4024 28.5901 27.6292C28.5901 26.856 27.9633 26.2292 27.1901 26.2292Z" fill="#FF6551"/>
<path d="M27.1901 20.977C26.4169 20.977 25.79 21.6038 25.79 22.377C25.79 23.1503 26.4169 23.7771 27.1901 23.7771C27.9633 23.7771 28.5901 23.1503 28.5901 22.377C28.5901 21.6038 27.9633 20.977 27.1901 20.977Z" fill="#FF6551"/>
<path d="M27.1901 15.7248C26.4169 15.7248 25.79 16.3516 25.79 17.1248C25.79 17.8981 26.4169 18.5249 27.1901 18.5249C27.9633 18.5249 28.5901 17.8981 28.5901 17.1248C28.5901 16.3516 27.9633 15.7248 27.1901 15.7248Z" fill="#FF6551"/>
<path d="M21.0608 20.977C20.2876 20.977 19.6607 21.6038 19.6607 22.377C19.6607 23.1503 20.2876 23.7771 21.0608 23.7771C21.834 23.7771 22.4608 23.1503 22.4608 22.377C22.4608 21.6038 21.834 20.977 21.0608 20.977Z" fill="#FF6551"/>
</svg>
