<svg width="35" height="37" viewBox="0 0 35 37" fill="none" xmlns="http://www.w3.org/2000/svg">
<path d="M28.7254 25.825L23.8254 24.775C23.4754 24.775 23.1254 24.775 22.9504 24.775L22.2504 21.975C24.1754 20.4 25.4004 18.125 25.4004 15.5V11.825L27.1504 10.95V12.35C27.1504 13.05 27.6754 13.75 28.5504 13.75C29.4254 13.75 29.9504 13.225 29.9504 12.35V7.625C29.9504 6.4 29.2504 5.35 28.2004 4.825L20.3254 0.975C18.4004 -0.075 16.1254 -0.075 14.0254 0.975L6.15039 4.825C5.10039 5.35 4.40039 6.4 4.40039 7.625C4.40039 8.85 5.10039 9.9 6.15039 10.425L8.77539 11.65V15.5C8.77539 18.125 10.0004 20.4 11.9254 21.975L11.2254 24.775C10.8754 24.775 10.5254 24.775 10.1754 24.775L5.27539 25.825C2.30039 26.35 0.0253906 29.15 0.0253906 32.3V34.75C0.0253906 35.45 0.55039 36.15 1.42539 36.15C2.30039 36.15 2.82539 35.625 2.82539 34.75V32.125C2.82539 30.2 4.22539 28.625 5.97539 28.275L10.8754 27.225H11.0504C11.2254 27.225 11.2254 27.4 11.4004 27.4C11.4004 27.4 11.5754 27.4 11.5754 27.575C12.9754 28.275 14.3754 28.8 15.7754 28.975V34.75C15.7754 35.45 16.3004 36.15 17.1754 36.15C18.0504 36.15 18.5754 35.625 18.5754 34.75V29.15C19.9754 28.975 21.5504 28.45 22.7754 27.75C22.7754 27.75 22.9504 27.75 22.9504 27.575C23.1254 27.575 23.1254 27.4 23.3004 27.4H23.4754L28.3754 28.45C30.1254 28.8 31.5254 30.375 31.5254 32.3V34.75C31.5254 35.45 32.0504 36.15 32.9254 36.15C33.8004 36.15 34.3254 35.625 34.3254 34.75V32.125C34.1504 28.975 31.8754 26.35 28.7254 25.825ZM7.20039 8.15C7.02539 7.975 6.85039 7.8 6.85039 7.625C6.85039 7.45 7.02539 7.275 7.20039 7.1L15.0754 3.25C15.7754 2.9 16.3004 2.725 17.0004 2.725C17.7004 2.725 18.4004 2.9 18.9254 3.25L26.8004 7.1C26.9754 7.275 27.1504 7.45 27.1504 7.625C27.1504 7.8 26.9754 7.975 26.8004 8.15L18.9254 12C17.7004 12.525 16.3004 12.525 15.0754 12L7.20039 8.15ZM11.4004 13.05L14.0254 14.275C15.0754 14.8 16.1254 14.975 17.1754 14.975C18.2254 14.975 19.2754 14.8 20.3254 14.275L22.9504 13.05V15.5C22.9504 18.65 20.3254 21.1 17.3504 21.1C14.3754 21.1 11.4004 18.65 11.4004 15.5V13.05ZM17.0004 23.9C18.0504 23.9 18.9254 23.725 19.8004 23.375L20.5004 26C19.4504 26.525 18.2254 26.7 17.1754 26.7C15.9504 26.7 14.9004 26.525 13.8504 26L14.5504 23.375C15.0754 23.55 15.9504 23.9 17.0004 23.9Z" fill="#9875FF"/>
</svg>
