<svg width="28" height="36" viewBox="0 0 28 36" fill="none" xmlns="http://www.w3.org/2000/svg">
<path d="M26.25 0.5C25.7859 0.5 25.3407 0.684374 25.0126 1.01256C24.6844 1.34075 24.5 1.78587 24.5 2.25V11.805L22.75 12.9775V2.25C22.75 1.78587 22.5656 1.34075 22.2374 1.01256C21.9092 0.684374 21.4641 0.5 21 0.5C20.5359 0.5 20.0908 0.684374 19.7626 1.01256C19.4344 1.34075 19.25 1.78587 19.25 2.25V12.9775L17.5 11.805V2.25C17.5 1.78587 17.3156 1.34075 16.9874 1.01256C16.6592 0.684374 16.2141 0.5 15.75 0.5C15.2859 0.5 14.8408 0.684374 14.5126 1.01256C14.1844 1.34075 14 1.78587 14 2.25V12.75C14.0015 13.0382 14.0742 13.3216 14.2115 13.575C14.3489 13.8284 14.5468 14.044 14.7875 14.2025L19.25 17.195V33.75C19.25 34.2141 19.4344 34.6592 19.7626 34.9874C20.0908 35.3156 20.5359 35.5 21 35.5C21.4641 35.5 21.9092 35.3156 22.2374 34.9874C22.5656 34.6592 22.75 34.2141 22.75 33.75V17.195L27.2125 14.2025C27.4532 14.044 27.6511 13.8284 27.7885 13.575C27.9258 13.3216 27.9985 13.0382 28 12.75V2.25C28 1.78587 27.8156 1.34075 27.4874 1.01256C27.1592 0.684374 26.7141 0.5 26.25 0.5ZM8.75 0.5C6.42936 0.5 4.20376 1.42187 2.56282 3.06282C0.921872 4.70376 0 6.92936 0 9.25V19.75C0 20.2141 0.184375 20.6592 0.512563 20.9874C0.840752 21.3156 1.28587 21.5 1.75 21.5H7V33.75C7 34.2141 7.18437 34.6592 7.51256 34.9874C7.84075 35.3156 8.28587 35.5 8.75 35.5C9.21413 35.5 9.65925 35.3156 9.98744 34.9874C10.3156 34.6592 10.5 34.2141 10.5 33.75V2.25C10.5 1.78587 10.3156 1.34075 9.98744 1.01256C9.65925 0.684374 9.21413 0.5 8.75 0.5ZM7 18H3.5V9.25C3.49943 8.16386 3.83575 7.10428 4.4626 6.21728C5.08945 5.33029 5.97598 4.65955 7 4.2975V18Z" fill="#78A74E"/>
</svg>
