<svg width="36" height="36" viewBox="0 0 36 36" fill="none" xmlns="http://www.w3.org/2000/svg">
<path d="M17.9992 0.5C15.0727 0.502994 12.1937 1.23984 9.62562 2.64311C7.05754 4.04638 4.88237 6.07127 3.29915 8.5325C1.07239 12.0247 0.156407 16.1935 0.714095 20.2976C1.27178 24.4016 3.26699 28.1748 6.3449 30.9462C9.42281 33.7176 13.3839 35.3074 17.5237 35.4331C21.6636 35.5588 25.7138 34.2121 28.9542 31.6325C31.7744 29.3625 33.8211 26.2737 34.8124 22.7918C35.8037 19.3099 35.6907 15.6062 34.489 12.1912C33.2874 8.77615 31.0561 5.81786 28.1028 3.72399C25.1495 1.63011 21.6194 0.503705 17.9992 0.5ZM21.4992 4.455C23.9174 5.08096 26.1241 6.34251 27.8904 8.1088C29.6566 9.87509 30.9182 12.0818 31.5442 14.5C28.6181 14.5824 25.7621 15.4139 23.2492 16.915C21.9873 15.4835 20.5797 14.1873 19.0492 13.0475C20.5911 10.4417 21.435 7.4822 21.4992 4.455ZM17.9992 4C17.9934 6.5113 17.3037 8.97359 16.0042 11.1225C15.7417 10.9825 15.4967 10.825 15.2342 10.7025C12.9808 9.51353 10.5713 8.64754 8.07665 8.13C9.37698 6.82191 10.923 5.78366 12.6258 5.0749C14.3286 4.36614 16.1547 4.00084 17.9992 4ZM5.74915 11.28C8.49389 11.6613 11.1521 12.5138 13.6067 13.8L13.8342 13.94C12.5425 15.2304 11.0089 16.2533 9.32121 16.95C7.63354 17.6467 5.82497 18.0035 3.99915 18C4.00888 15.6486 4.61073 13.3375 5.74915 11.28ZM14.4992 31.545C12.0809 30.919 9.87425 29.6575 8.10796 27.8912C6.34166 26.1249 5.08011 23.9182 4.45415 21.5C6.79155 21.4481 9.09426 20.9236 11.2236 19.9582C13.3529 18.9928 15.2648 17.6064 16.8442 15.8825C18.1093 16.8177 19.2813 17.8726 20.3442 19.0325C18.5721 20.6126 17.14 22.5367 16.1352 24.6878C15.1303 26.8389 14.5737 29.1719 14.4992 31.545ZM17.9992 32C18.0029 30.0774 18.4027 28.1762 19.1734 26.4149C19.9442 24.6536 21.0695 23.0699 22.4792 21.7625C22.5842 21.9025 22.6892 22.025 22.7767 22.165C24.2431 24.4106 25.331 26.8819 25.9967 29.48C23.6544 31.1246 20.8611 32.0047 17.9992 32ZM28.8666 26.75C28.1067 24.4347 27.0477 22.2286 25.7167 20.1875L25.3492 19.75C27.3839 18.618 29.6708 18.0162 31.9992 18C31.9818 21.1883 30.8767 24.2751 28.8666 26.75Z" fill="#8F1C00"/>
</svg>
