<svg width="35" height="36" viewBox="0 0 35 36" fill="none" xmlns="http://www.w3.org/2000/svg">
<path d="M17.0006 35.0625H16.6506L16.3531 34.94C13.9146 33.4365 11.115 32.6202 8.2506 32.5775C7.43165 32.5463 6.65585 32.2022 6.0829 31.6163C5.50994 31.0303 5.18344 30.2469 5.1706 29.4275V19.8725C5.16571 19.4365 5.25191 19.0042 5.42368 18.6035C5.59545 18.2027 5.84899 17.8422 6.1681 17.545C6.48694 17.2496 6.86198 17.0215 7.27088 16.8742C7.67977 16.7268 8.11414 16.6634 8.5481 16.6875C11.4999 16.8067 14.3878 17.5839 17.0006 18.9625C19.6198 17.5842 22.5133 16.807 25.4706 16.6875C25.9025 16.6636 26.3348 16.7284 26.7407 16.878C27.1466 17.0275 27.5176 17.2586 27.8308 17.557C28.1439 17.8554 28.3927 18.2148 28.5616 18.6131C28.7306 19.0113 28.8162 19.4399 28.8131 19.8725V29.41C28.8049 30.2296 28.4828 31.0148 27.9131 31.6041C27.3434 32.1933 26.5694 32.5417 25.7506 32.5775C22.8989 32.604 20.1067 33.3957 17.6656 34.87L17.3681 34.9925H17.0181L17.0006 35.0625ZM18.3131 21.2375V31.58C20.655 30.5348 23.1863 29.9809 25.7506 29.9525C25.8867 29.9354 26.0117 29.8689 26.1021 29.7657C26.1924 29.6624 26.2417 29.5297 26.2406 29.3925V19.8725C26.2422 19.7968 26.2274 19.7216 26.1972 19.6521C26.167 19.5826 26.1221 19.5205 26.0656 19.47C25.9504 19.3804 25.809 19.3313 25.6631 19.33C23.1019 19.4127 20.5913 20.0643 18.3131 21.2375ZM8.3906 19.3125C8.31605 19.3075 8.24132 19.319 8.17174 19.3463C8.10217 19.3735 8.03946 19.4157 7.9881 19.47C7.92965 19.5189 7.88339 19.5807 7.85301 19.6506C7.82264 19.7204 7.80897 19.7964 7.8131 19.8725V29.41C7.82142 29.5512 7.88125 29.6844 7.98124 29.7844C8.08123 29.8843 8.21444 29.9442 8.3556 29.9525C10.8849 29.9918 13.3797 30.5455 15.6881 31.58V21.2375C13.4389 20.068 10.9588 19.4106 8.4256 19.3125H8.3906ZM32.7506 17.055C32.442 17.0534 32.1441 16.9417 31.9106 16.74L29.6881 14.8325L22.4956 8.69L18.0156 4.84C17.7348 4.59387 17.374 4.45818 17.0006 4.45818C16.6272 4.45818 16.2664 4.59387 15.9856 4.84L2.0906 16.74C1.83463 16.9407 1.5125 17.0377 1.18825 17.0118C0.86401 16.9859 0.561403 16.8389 0.340598 16.6C0.227628 16.4692 0.141611 16.3173 0.0874873 16.1532C0.0333634 15.989 0.0121982 15.8158 0.0252066 15.6434C0.0382149 15.4711 0.0851406 15.303 0.16329 15.1488C0.241439 14.9946 0.349272 14.8574 0.480598 14.745L14.3756 2.845C15.1291 2.19353 16.092 1.83503 17.0881 1.83503C18.0842 1.83503 19.0471 2.19353 19.8006 2.845L22.1281 4.8225V3.6675C22.1281 2.94346 22.4157 2.24907 22.9277 1.7371C23.4397 1.22512 24.1341 0.9375 24.8581 0.9375H29.0756C29.8013 0.937485 30.4975 1.22455 31.0122 1.73603C31.527 2.2475 31.8185 2.94185 31.8231 3.6675V13.2225L33.5731 14.745C33.7044 14.8574 33.8123 14.9946 33.8904 15.1488C33.9686 15.303 34.0155 15.4711 34.0285 15.6434C34.0415 15.8158 34.0203 15.989 33.9662 16.1532C33.9121 16.3173 33.8261 16.4692 33.7131 16.6C33.5927 16.738 33.445 16.8497 33.2794 16.928C33.1137 17.0063 32.9337 17.0495 32.7506 17.055ZM24.6656 7.0975L29.2506 11V3.6675L24.8231 3.5625L24.6656 7.0975Z" fill="#6294F8"/>
</svg>
