<svg width="36" height="42" viewBox="0 0 36 42" fill="none" xmlns="http://www.w3.org/2000/svg">
<path d="M25.8231 41.4477C25.6067 41.4479 25.3941 41.3925 25.2068 41.2872C25.0194 41.1818 24.864 41.0301 24.7561 40.8475L15.7215 25.6104C15.6407 25.4741 15.5883 25.3236 15.5672 25.1676C15.5461 25.0116 15.5568 24.853 15.5986 24.701C15.6404 24.549 15.7126 24.4065 15.8111 24.2817C15.9095 24.1568 16.0322 24.0521 16.1722 23.9735L24.8196 19.1125C25.1021 18.9538 25.4377 18.9108 25.7527 18.9929C26.0677 19.0749 26.3363 19.2754 26.4997 19.5502L35.5353 34.7885C35.6328 34.9528 35.6888 35.1374 35.6987 35.327C35.7085 35.5166 35.672 35.7057 35.5921 35.8788C35.5121 36.0519 35.3911 36.2041 35.239 36.3228C35.0868 36.4414 34.9079 36.5232 34.7169 36.5613L29.9629 37.5085L26.7437 41.0442C26.6282 41.1709 26.4864 41.2722 26.3277 41.3415C26.169 41.4109 25.997 41.4467 25.8231 41.4466V41.4477Z" fill="#FFE4AD"/>
<path d="M10.1809 41.4477C9.83126 41.4477 9.49526 41.3018 9.26142 41.0442L6.04104 37.5074L1.28709 36.5613C1.09602 36.5233 0.916962 36.4417 0.764668 36.3231C0.612374 36.2045 0.49121 36.0523 0.411166 35.8792C0.331122 35.706 0.29449 35.5168 0.304289 35.3272C0.314088 35.1376 0.370038 34.9529 0.467527 34.7885L9.5032 19.5502C9.66652 19.2754 9.93518 19.0749 10.2502 18.9929C10.5652 18.9108 10.9008 18.9538 11.1832 19.1125L19.8318 23.9735C20.4198 24.305 20.6218 25.0367 20.2824 25.6092L11.2468 40.8475C11.1387 41.0297 10.9834 41.181 10.7963 41.2861C10.6092 41.3913 10.3969 41.4466 10.1809 41.4466V41.4477Z" fill="#FFE4AD"/>
<path d="M18.0377 31.4946H17.9809C16.3736 31.4703 15.2396 30.4689 14.2395 29.5858C13.6549 29.0696 13.1021 28.5822 12.5436 28.3567C12.0476 28.1567 11.3563 28.139 10.623 28.1202C9.32098 28.087 7.84644 28.0484 6.75217 26.9508C5.63293 25.8257 5.55801 24.3369 5.49217 23.0238C5.45358 22.2557 5.41725 21.5317 5.18569 20.9868C4.98023 20.5038 4.5046 20.0142 3.99947 19.4969C3.10271 18.5774 2.0879 17.5351 2.11174 16.0043C2.13671 14.4393 3.16515 13.3351 4.07212 12.3614C4.60223 11.7922 5.10396 11.2539 5.33552 10.7101C5.53985 10.2271 5.55915 9.554 5.57844 8.84C5.6125 7.57226 5.65109 6.13652 6.77942 5.07105C7.93385 3.98126 9.46287 3.90831 10.8125 3.84421C11.6003 3.80663 12.345 3.77126 12.9035 3.54579C13.3995 3.34684 13.9024 2.88263 14.4336 2.39079C15.3656 1.52868 16.4247 0.552734 17.9639 0.552734H18.0207C19.628 0.57705 20.762 1.57842 21.7621 2.46152C22.3478 2.97879 22.8995 3.46621 23.458 3.69168C23.9551 3.89063 24.6464 3.90942 25.3786 3.92821C26.6806 3.96137 28.1563 3.99894 29.2494 5.09758C30.3687 6.22163 30.4436 7.71042 30.5094 9.02458C30.548 9.79163 30.5843 10.5167 30.8159 11.0605C31.0214 11.5446 31.497 12.0331 32.0021 12.5504C32.8989 13.4699 33.9137 14.5133 33.8898 16.043C33.8649 17.608 32.8364 18.7122 31.9295 19.687C31.3994 20.2563 30.8988 20.7945 30.6672 21.3372C30.4617 21.8213 30.4436 22.4944 30.4243 23.2073C30.3902 24.475 30.3505 25.9119 29.2222 26.9763C28.0677 28.066 26.5387 28.139 25.1902 28.2031C24.4013 28.2407 23.6577 28.2772 23.0981 28.5015C22.6021 28.7016 22.0992 29.1647 21.568 29.6565C20.6349 30.5186 19.5781 31.4946 18.0377 31.4946Z" fill="#FAB223"/>
<path d="M18.0016 25.9044C12.4054 25.9044 7.85352 21.4723 7.85352 16.0234C7.85352 10.5766 12.4054 6.14453 18.0016 6.14453C23.5967 6.14453 28.1486 10.5766 28.1486 16.0245C28.1486 21.4723 23.5967 25.9044 18.0005 25.9044H18.0016Z" fill="#FAB223"/>
<path d="M15.0918 21.4224C14.7737 21.4226 14.4679 21.3029 14.2385 21.0884C14.0091 20.8739 13.8739 20.5812 13.8613 20.2718L13.75 17.5141L12.2925 15.5335C12.1823 15.3836 12.1091 15.2109 12.0786 15.029C12.0481 14.847 12.0611 14.6606 12.1167 14.4844C12.1723 14.3081 12.2689 14.1467 12.399 14.0127C12.5291 13.8788 12.6892 13.7759 12.8669 13.712L15.5254 12.756L17.0101 10.7952C17.1225 10.647 17.2685 10.526 17.4368 10.4416C17.605 10.3572 17.791 10.3117 17.9802 10.3088C18.1694 10.3058 18.3568 10.3453 18.5278 10.4243C18.6988 10.5033 18.8487 10.6197 18.966 10.7643L20.722 12.9306L23.0956 13.6988C23.2752 13.7569 23.4387 13.8546 23.5732 13.9843C23.7077 14.114 23.8097 14.2721 23.8712 14.4464C23.9327 14.6207 23.9521 14.8065 23.9278 14.9893C23.9035 15.1721 23.8363 15.347 23.7313 15.5004L22.1568 17.7971L22.1398 20.232C22.1385 20.4164 22.0935 20.598 22.0084 20.7627C21.9232 20.9274 21.8002 21.0707 21.6488 21.1815C21.4974 21.2923 21.3218 21.3676 21.1357 21.4015C20.9495 21.4354 20.7579 21.4271 20.5756 21.377L17.8479 20.6288C17.8479 20.6288 15.5061 21.4224 15.0918 21.4224Z" fill="#FFFAC1"/>
</svg>
