<svg width="36" height="36" viewBox="0 0 36 36" fill="none" xmlns="http://www.w3.org/2000/svg">
<path fill-rule="evenodd" clip-rule="evenodd" d="M18 0.9375C8.57588 0.9375 0.9375 8.57588 0.9375 18C0.9375 27.4241 8.57588 35.0625 18 35.0625C27.4241 35.0625 35.0625 27.4241 35.0625 18C35.0625 8.57588 27.4241 0.9375 18 0.9375ZM18 3.5625C10.0256 3.5625 3.5625 10.0256 3.5625 18C3.5625 25.9744 10.0256 32.4375 18 32.4375C25.9744 32.4375 32.4375 25.9744 32.4375 18C32.4375 10.0256 25.9744 3.5625 18 3.5625Z" fill="#000AFF" fill-opacity="0.65"/>
<path d="M17.9983 9.6875C17.0353 9.6875 16.2455 10.4688 16.25 11.4423C16.2526 12.4064 17.0352 13.1875 18 13.1875C18.9664 13.1875 19.75 12.4039 19.75 11.4375C19.75 10.4677 18.963 9.6875 17.9983 9.6875Z" fill="#000AFF" fill-opacity="0.65"/>
<path d="M19.3125 18C19.3125 17.2751 18.7249 16.6875 18 16.6875C17.2751 16.6875 16.6875 17.2751 16.6875 18V26.75C16.6875 27.4749 17.2751 28.0625 18 28.0625C18.7249 28.0625 19.3125 27.4749 19.3125 26.75V18Z" fill="#000AFF" fill-opacity="0.65"/>
</svg>
