<svg width="34" height="34" viewBox="0 0 34 34" fill="none" xmlns="http://www.w3.org/2000/svg">
<path fill-rule="evenodd" clip-rule="evenodd" d="M17.0002 0.0253906C11.9744 0.0253906 7.90021 4.0996 7.90021 9.12539C7.90021 11.2885 9.09701 13.3606 10.4139 15.0194C11.7596 16.7144 13.3909 18.1771 14.5775 19.1459L14.6122 19.1723C16.0228 20.2427 17.9739 20.2438 19.3851 19.1741L19.4188 19.1465C20.6067 18.1777 22.2393 16.7155 23.5856 15.0202C24.9031 13.3612 26.1002 11.2889 26.1002 9.12539C26.1002 4.0996 22.026 0.0253906 17.0002 0.0253906ZM17.0002 2.47539C13.3275 2.47539 10.3502 5.4527 10.3502 9.12539C10.3502 10.4384 11.113 11.9595 12.3327 13.496C13.5169 14.9877 14.9888 16.3164 16.1082 17.2318C16.6373 17.6231 17.3602 17.6233 17.8895 17.2323C19.0098 16.3171 20.4823 14.9884 21.667 13.4966C22.8872 11.96 23.6502 10.4386 23.6502 9.12539C23.6502 5.4527 20.6729 2.47539 17.0002 2.47539Z" fill="#45C881"/>
<path d="M16.9874 7.46296C17.4318 7.45891 17.8593 7.63325 18.1742 7.94693C18.4883 8.25985 18.6642 8.68538 18.6627 9.12866C18.6609 10.0445 17.9186 10.7867 17.0023 10.7879C16.085 10.7891 15.34 10.047 15.3377 9.12961C15.3354 8.21227 16.0701 7.46645 16.9874 7.46296Z" fill="#45C881"/>
<path d="M1.86905 19.5742C2.31068 17.3657 4.24958 15.7758 6.50179 15.7754C7.17834 15.7753 7.72689 16.3236 7.72701 17.0002C7.72714 17.6767 7.17879 18.2253 6.50224 18.2254C5.41775 18.2256 4.48413 18.9912 4.27148 20.0546L2.52156 28.8042C2.3879 29.4726 2.56092 30.1656 2.99303 30.6927C3.42514 31.2198 4.07081 31.5254 4.75238 31.5254H29.25C29.9316 31.5254 30.5772 31.2198 31.0094 30.6927C31.4415 30.1656 31.6145 29.4726 31.4808 28.8042L29.7308 20.0546C29.5182 18.9912 28.5846 18.2256 27.5001 18.2254C26.8236 18.2253 26.2752 17.6767 26.2754 17.0001C26.2755 16.3236 26.8241 15.7752 27.5006 15.7754C29.7528 15.7759 31.6916 17.3657 32.1332 19.5741L33.8832 28.3237C34.1609 29.7118 33.8015 31.1513 32.904 32.246C32.0066 33.3407 30.6656 33.9754 29.25 33.9754H4.75238C3.3368 33.9754 1.9958 33.3407 1.09834 32.246C0.200884 31.1513 -0.158476 29.7118 0.11914 28.3237L1.86905 19.5742Z" fill="#45C881"/>
<path d="M9.65021 25.7504C9.65021 25.0738 10.1987 24.5254 10.8752 24.5254H23.1252C23.8018 24.5254 24.3502 25.0738 24.3502 25.7504C24.3502 26.4269 23.8018 26.9754 23.1252 26.9754H10.8752C10.1987 26.9754 9.65021 26.4269 9.65021 25.7504Z" fill="#45C881"/>
</svg>
