<svg width="41" height="40" viewBox="0 0 41 40" fill="none" xmlns="http://www.w3.org/2000/svg">
<rect x="0.507812" width="40" height="40" rx="20" fill="#FB7D5B"/>
<path d="M27.5078 12H13.5078C12.7122 12 11.9491 12.3161 11.3865 12.8787C10.8239 13.4413 10.5078 14.2044 10.5078 15V25C10.5078 25.7956 10.8239 26.5587 11.3865 27.1213C11.9491 27.6839 12.7122 28 13.5078 28H27.5078C28.3035 28 29.0665 27.6839 29.6291 27.1213C30.1917 26.5587 30.5078 25.7956 30.5078 25V15C30.5078 14.2044 30.1917 13.4413 29.6291 12.8787C29.0665 12.3161 28.3035 12 27.5078 12ZM26.9348 14L21.1078 18.8C20.9413 18.9267 20.739 18.9976 20.5298 19.0026C20.3207 19.0077 20.1152 18.9465 19.9428 18.828L14.0808 14H26.9348ZM27.5078 26H13.5078C13.2426 26 12.9882 25.8946 12.8007 25.7071C12.6132 25.5196 12.5078 25.2652 12.5078 25V15.3L18.7078 20.4C19.2237 20.7863 19.8513 20.9944 20.4958 20.993C21.1629 20.992 21.8115 20.774 22.3438 20.372L28.5078 15.3V25C28.5078 25.2652 28.4025 25.5196 28.2149 25.7071C28.0274 25.8946 27.773 26 27.5078 26Z" fill="white"/>
</svg>
