<svg width="41" height="40" viewBox="0 0 41 40" fill="none" xmlns="http://www.w3.org/2000/svg">
<rect x="0.519531" width="40" height="40" rx="20" fill="#FB7D5B"/>
<path d="M27.9601 20.9999C27.7401 20.9999 27.5101 20.9299 27.2901 20.8799C26.8446 20.7817 26.4068 20.6514 25.9801 20.4899C25.5162 20.3211 25.0063 20.3299 24.5484 20.5145C24.0906 20.6991 23.7172 21.0465 23.5001 21.4899L23.2801 21.9399C22.3061 21.398 21.4111 20.7251 20.6201 19.9399C19.8349 19.1489 19.1619 18.2539 18.6201 17.2799L19.0401 16.9999C19.4835 16.7828 19.8309 16.4094 20.0155 15.9516C20.2001 15.4937 20.2089 14.9838 20.0401 14.5199C19.8813 14.0923 19.7511 13.6547 19.6501 13.2099C19.6001 12.9899 19.5601 12.7599 19.5301 12.5299C19.4087 11.8255 19.0397 11.1876 18.4897 10.7311C17.9397 10.2746 17.2448 10.0295 16.5301 10.0399H13.5301C13.0992 10.0358 12.6724 10.1247 12.2788 10.3004C11.8853 10.4761 11.5342 10.7346 11.2496 11.0582C10.9649 11.3817 10.7533 11.7629 10.6291 12.1756C10.505 12.5883 10.4712 13.0229 10.5301 13.4499C11.0629 17.6392 12.9761 21.5317 15.9678 24.5125C18.9594 27.4933 22.8588 29.3924 27.0501 29.9099H27.4301C28.1675 29.9109 28.8795 29.6404 29.4301 29.1499C29.7465 28.8669 29.9992 28.52 30.1716 28.1322C30.344 27.7443 30.4321 27.3243 30.4301 26.8999V23.8999C30.4179 23.2053 30.1649 22.5364 29.7145 22.0075C29.264 21.4786 28.6439 21.1225 27.9601 20.9999ZM28.4601 26.9999C28.4599 27.1419 28.4295 27.2822 28.3709 27.4115C28.3123 27.5408 28.2268 27.6562 28.1201 27.7499C28.0084 27.8463 27.8777 27.9184 27.7365 27.9615C27.5953 28.0045 27.4467 28.0176 27.3001 27.9999C23.555 27.5197 20.0764 25.8064 17.4128 23.1302C14.7493 20.454 13.0525 16.9672 12.5901 13.2199C12.5742 13.0734 12.5882 12.9252 12.6311 12.7843C12.6741 12.6433 12.7452 12.5126 12.8401 12.3999C12.9338 12.2932 13.0492 12.2077 13.1785 12.1491C13.3078 12.0905 13.4481 12.06 13.5901 12.0599H16.5901C16.8227 12.0547 17.0497 12.1307 17.2323 12.2749C17.4148 12.4191 17.5413 12.6224 17.5901 12.8499C17.6301 13.1232 17.6801 13.3932 17.7401 13.6599C17.8556 14.187 18.0094 14.705 18.2001 15.2099L16.8001 15.8599C16.6804 15.9148 16.5727 15.9928 16.4833 16.0895C16.3938 16.1861 16.3243 16.2995 16.2788 16.4231C16.2333 16.5466 16.2126 16.678 16.218 16.8096C16.2233 16.9412 16.2547 17.0704 16.3101 17.1899C17.7493 20.2726 20.2274 22.7507 23.3101 24.1899C23.5536 24.2899 23.8267 24.2899 24.0701 24.1899C24.1948 24.1453 24.3094 24.0763 24.4073 23.9871C24.5051 23.8978 24.5843 23.79 24.6401 23.6699L25.2601 22.2699C25.7771 22.4547 26.3047 22.6084 26.8401 22.7299C27.1068 22.7899 27.3768 22.8399 27.6501 22.8799C27.8776 22.9287 28.0809 23.0552 28.225 23.2377C28.3692 23.4202 28.4453 23.6473 28.4401 23.8799L28.4601 26.9999Z" fill="white"/>
</svg>
